<svg xmlns="http://www.w3.org/2000/svg" viewBox="0 0 240 48" width="240" height="48">
  <!-- Icône feuille dans carré arrondi -->
  <rect x="0" y="4" width="40" height="40" rx="10" fill="#e8efe0"/>
  <g transform="translate(8, 8) scale(0.75)">
    <path d="M16 3c-5.5 4-9 8.5-9 14 0 4.3 2.7 7.8 6.5 9v3h5v-3c3.8-1.2 6.5-4.7 6.5-9 0-5.5-3.5-10-9-14z" fill="#2e6b2e" opacity="0.95"/>
    <path d="M16 7v19" stroke="#faf7f0" stroke-width="1.4" stroke-linecap="round"/>
    <path d="M16 14c-1.8-1-3.2-1.6-5-1.8M16 18c-2-1-3.6-1.5-5.5-1.7M16 14c1.8-1 3.2-1.6 5-1.8M16 18c2-1 3.6-1.5 5.5-1.7" stroke="#faf7f0" stroke-width="1.4" stroke-linecap="round"/>
  </g>

  <!-- Texte "Veille Boisée" -->
  <text
    x="52"
    y="31"
    font-family="Georgia, 'Palatino Linotype', 'Iowan Old Style', serif"
    font-size="22"
    font-weight="500"
    fill="#1f3d2b"
    letter-spacing="-0.3"
  >Veille Boisée</text>
</svg>
